# xmcd
#
# Track frame offsets: 
#        150
#        13178
#        26716
#        42405
#        56770
#        71106
#        86028
#        100078
#        114757
#        124913
#        139666
#        152873
#        166879
#        180446
#
# Disc length: 2645 seconds
#
# Revision: 0
# Processed by: cddbd v1.5.2PL0 Copyright (c) Steve Scherf et al.
# Submitted via: ExactAudioCopyFreeDBPlugin 1.0
#
DISCID=bb0a530e
DTITLE=정미조 - Best of Jeong Mijo
DYEAR=2005
DGENRE=Pop
TTITLE0=개여울
TTITLE1=그리운 생각
TTITLE2=휘파람을 부세요
TTITLE3=불꽃
TTITLE4=파도
TTITLE5=고향
TTITLE6=사랑과 계절
TTITLE7=오해
TTITLE8=비가 오는데
TTITLE9=숙명
TTITLE10=진달래꽃
TTITLE11=기다려
TTITLE12=너니까
TTITLE13=아 사랑아
EXTD=
EXTT0=
EXTT1=
EXTT2=
EXTT3=
EXTT4=
EXTT5=
EXTT6=
EXTT7=
EXTT8=
EXTT9=
EXTT10=
EXTT11=
EXTT12=
EXTT13=
PLAYORDER=
